<svg xmlns="http://www.w3.org/2000/svg" xmlns:xlink="http://www.w3.org/1999/xlink" width="17" height="12" viewBox="0 0 17 12"><defs><path id="j3z3a" d="M1341.74 68.86h-12.57a.26.26 0 0 1-.26-.26v-8.34c0-.15.11-.26.26-.26h12.57c.14 0 .26.11.26.26v8.34c0 .15-.12.26-.26.26zm-.48-.51l-3.8-4.92-2 1.32-2.02-1.34-3.81 4.94zm-11.84-.58l3.6-4.65-3.6-2.38zm.6-7.26l5.43 3.62 5.44-3.62zm7.86 2.63l3.6 4.66v-7.06z"/></defs><g><g transform="translate(-1327 -58)"><use fill="#fff" xlink:href="#j3z3a"/></g></g></svg>