<?xml version="1.0" encoding="UTF-8"?>
<!DOCTYPE svg PUBLIC "-//W3C//DTD SVG 1.1//EN" "http://www.w3.org/Graphics/SVG/1.1/DTD/svg11.dtd">
<!-- Creator: CorelDRAW X7 -->
<svg xmlns="http://www.w3.org/2000/svg" xml:space="preserve" version="1.1" style="shape-rendering:geometricPrecision; text-rendering:geometricPrecision; image-rendering:optimizeQuality; fill-rule:evenodd; clip-rule:evenodd"
viewBox="0 0 2183571 2579147"
 xmlns:xlink="http://www.w3.org/1999/xlink">
 <defs>
  <style type="text/css">
   <![CDATA[
    .str0 {stroke:#FEFEFE;stroke-width:64536.8}
    .fil1 {fill:#FEFEFE}
    .fil0 {fill:#7687ED}
   ]]>
  </style>
    <clipPath id="id0">
     <path d="M0 0l2158100 0 25471 2579147 -2158099 0 -25472 -2579147z"/>
    </clipPath>
 </defs>
 <g id="Слой_x0020_1">
  <metadata id="CorelCorpID_0Corel-Layer"/>
  <g id="_1048648272">
   <g style="clip-path:url(#id0)">
    <image x="0" y="0" width="2183571" height="2579147" xlink:href="INSTA_Images\INSTA_ImgID1.png"/>
   </g>
  </g>
  <circle class="fil0 str0" cx="1080802" cy="1108081" r="897945"/>
  <g id="_1048652656">
   <path class="fil1" d="M642989 1384138c-11620,-124426 -1033,-324178 -812,-456572 221,-129848 48896,-245199 191176,-265856 102661,-14904 340630,-6401 454192,-4169 134182,2638 233358,70439 246509,210505 12117,128908 2545,319678 2342,455060 -203,129811 -48951,245217 -191157,265856 -102735,14903 -340594,6382 -454211,4169 -130494,-2564 -235128,-70974 -248039,-208993zm216075 -809246l438441 0c33716,1826 60755,4224 76765,7285 145157,27649 234262,153365 242802,296291 7008,117361 11454,424939 -3911,534037 -20215,143626 -134164,248021 -277735,261338 -7488,683 -16710,1347 -27371,1937l-428591 0c-32647,-1808 -59022,-4224 -75143,-7304 -145175,-27685 -234298,-153309 -242820,-296253 -7008,-117380 -11454,-424976 3892,-534056 19920,-141395 135087,-248888 277071,-262021 4777,-442 10366,-867 16600,-1254z"/>
   <path class="fil1" d="M899273 1134162c-15217,-255584 365973,-277274 379880,-24624 14110,256856 -365051,273235 -379880,24624zm165390 -306785c-378957,31706 -332293,621519 52216,587969 377722,-32942 335927,-620431 -52216,-587969z"/>
   <path class="fil1" d="M1373975 752898c-89492,15899 -64850,154324 25158,137669 88201,-16323 67045,-154047 -25158,-137669z"/>
  </g>
 </g>
</svg>
