<!-- Generator: Adobe Illustrator 22.0.1, SVG Export Plug-In  -->
<svg version="1.1"
	 xmlns="http://www.w3.org/2000/svg" xmlns:xlink="http://www.w3.org/1999/xlink" xmlns:a="http://ns.adobe.com/AdobeSVGViewerExtensions/3.0/"
	 x="0px" y="0px" viewBox="0 0 260 251" style="enable-background:new 0 0 260 251;"
	 xml:space="preserve">
<style type="text/css">
	.st0{fill:url(#SVGID_1_);}
	.st1{fill:url(#SVGID_2_);}
</style>
<defs>
</defs>
<g>
	<linearGradient id="SVGID_1_" gradientUnits="userSpaceOnUse" x1="38.9394" y1="216.5726" x2="232.0643" y2="23.4477">
		<stop  offset="0" style="stop-color:#007DC6"/>
		<stop  offset="1" style="stop-color:#9A4B95"/>
	</linearGradient>
	<path class="st0" d="M148.5,1.2L86.3,63.3c-0.2,0.2-0.4,0.4-0.5,0.5C54.9,94.8,54.6,145,85.3,176.2c24.3,24.7,64.2,25.1,88.9,0.8
		c9.4-9.2,14.6-21.5,14.8-34.7c0.1-13.2-4.9-25.6-14.1-35c-14.8-15.1-39.2-15.4-54.4-0.5c-0.1,0.1-0.1,0.1-0.2,0.2
		c-5.5,5.5-8.6,12.9-8.7,20.7c-0.1,7.9,2.9,15.4,8.5,21.1c8.8,9,23.3,9.1,32.3,0.3c0,0,0.1-0.1,0.1-0.1c6.7-6.7,6.7-17.5,0.1-24.3
		c-4.9-5-13.1-5.1-18.1-0.2c-2,1.9-5.1,1.9-7-0.1c-1.9-2-1.9-5.1,0-7c0,0,0,0,0,0c9-8.8,23.4-8.7,32.2,0.3
		c10.4,10.6,10.3,27.8-0.2,38.3c-0.1,0.1-0.1,0.1-0.2,0.2c-12.9,12.7-33.7,12.5-46.3-0.4c-7.4-7.6-11.5-17.6-11.4-28.2
		c0.1-10.6,4.3-20.5,11.9-28c19.1-18.7,49.8-18.4,68.4,0.7c22.7,23.2,22.5,60.5-0.4,83.4c-0.1,0.1-0.3,0.3-0.4,0.4
		c-28.7,28.1-74.9,27.7-103-1C43.7,148.1,44,91.6,78.7,56.9c0.2-0.2,0.4-0.4,0.6-0.6l56.1-56.1c-1.7-0.1-3.4-0.1-5.1-0.1
		C55.9,0,0,56.2,0,125.5C0,195.5,55.2,251,129.7,251c74.5,0,130.3-56.2,130.3-125.5C260,61.3,213.6,9.4,148.5,1.2z"/>
</g>
</svg>
