<!-- Generator: Adobe Illustrator 22.0.1, SVG Export Plug-In  -->
<svg version="1.1"
	 xmlns="http://www.w3.org/2000/svg" xmlns:xlink="http://www.w3.org/1999/xlink" xmlns:a="http://ns.adobe.com/AdobeSVGViewerExtensions/3.0/"
	 x="0px" y="0px" viewBox="0 0 104.6 101" style="enable-background:new 0 0 104.6 101;"
	 xml:space="preserve">
<style type="text/css">
	.st0{fill:#FFFFFF;}
</style>
<defs>
</defs>
<path class="st0" d="M59.7,0.5l-25,25c-0.1,0.1-0.1,0.1-0.2,0.2C22.1,38.1,22,58.3,34.3,70.9c9.8,10,25.8,10.1,35.8,0.3
	c3.8-3.7,5.9-8.7,5.9-14c0.1-5.3-2-10.3-5.7-14.1c-6-6.1-15.8-6.2-21.9-0.2c0,0-0.1,0.1-0.1,0.1c-2.2,2.2-3.5,5.2-3.5,8.3
	c0,3.2,1.2,6.2,3.4,8.5c3.5,3.6,9.4,3.7,13,0.1c0,0,0,0,0,0c2.7-2.7,2.7-7.1,0-9.8c-2-2-5.3-2.1-7.3-0.1c-0.8,0.8-2.1,0.8-2.8,0
	c-0.8-0.8-0.8-2,0-2.8c0,0,0,0,0,0c3.6-3.5,9.4-3.5,13,0.1c4.2,4.3,4.2,11.2-0.1,15.4c0,0,0,0-0.1,0.1c-5.2,5.1-13.6,5-18.6-0.2
	c-3-3-4.6-7.1-4.6-11.3c0-4.3,1.7-8.3,4.8-11.3c7.7-7.5,20-7.4,27.5,0.3c9.2,9.3,9.1,24.3-0.2,33.5C73,74,72.9,74,72.9,74.1
	c-11.5,11.3-30.1,11.1-41.4-0.4c-13.9-14.1-13.7-36.9,0.2-50.8c0.1-0.1,0.2-0.2,0.2-0.2L54.5,0c-0.7,0-1.4,0-2.1,0
	C22.5,0,0,22.6,0,50.5C0,78.6,22.2,101,52.2,101c30,0,52.4-22.6,52.4-50.5C104.6,24.7,85.9,3.8,59.7,0.5z"/>
</svg>
