<?xml version="1.0" encoding="UTF-8"?>
<!DOCTYPE svg PUBLIC "-//W3C//DTD SVG 1.1//EN" "http://www.w3.org/Graphics/SVG/1.1/DTD/svg11.dtd">
<!-- Creator: CorelDRAW X7 -->
<svg xmlns="http://www.w3.org/2000/svg" xml:space="preserve" version="1.1" style="shape-rendering:geometricPrecision; text-rendering:geometricPrecision; image-rendering:optimizeQuality; fill-rule:evenodd; clip-rule:evenodd"
viewBox="0 0 1113582 1315319"
 xmlns:xlink="http://www.w3.org/1999/xlink">
 <defs>
  <style type="text/css">
   <![CDATA[
    .str0 {stroke:#FEFEFE;stroke-width:32912.6}
    .fil1 {fill:#FEFEFE}
    .fil0 {fill:#7687ED}
   ]]>
  </style>
    <clipPath id="id0">
     <path d="M0 0l1100592 0 12990 1315319 -1100592 0 -12990 -1315319z"/>
    </clipPath>
 </defs>
 <g id="Слой_x0020_1">
  <metadata id="CorelCorpID_0Corel-Layer"/>
  <g id="_1089846464">
   <g style="clip-path:url(#id0)">
    <image x="0" y="0" width="1113582" height="1315319" xlink:href="ODN_Images\ODN_ImgID1.png"/>
   </g>
  </g>
  <circle class="fil0 str0" cx="551190" cy="565102" r="457936"/>
  <path class="fil1" d="M430507 875415l10798 0c2183,-1223 7535,-2220 10554,-3668 7958,-3829 15746,-12887 22011,-19039 8071,-7939 78552,-79342 82380,-82324 2766,1261 23826,23394 27928,27392 9368,9124 18078,17975 27344,27344l41067 40964c8015,7027 11580,6443 17374,8861l903 470 12651 0 7949 -2709c7581,-3095 13385,-8578 18398,-14589 7149,-8569 11241,-20807 7347,-34314 -3462,-11965 -12464,-19048 -18728,-25360 -9717,-9792 -108690,-107730 -110129,-110890 37691,-3509 72983,-12915 103074,-28737 9698,-5098 30919,-19828 38886,-26958 11372,-10168 22744,-23055 13526,-45893 -6001,-14853 -18606,-28304 -39459,-26103 -18898,2004 -30477,14994 -43363,22566 -28295,16621 -71865,27419 -105389,27005 -36835,-460 -79229,-11428 -104720,-27024 -12510,-7657 -24983,-20731 -43184,-22556 -21070,-2107 -34220,11936 -39760,26657 -11090,29489 11654,45423 32781,59702 6189,4195 13244,8955 20185,12736 30430,16574 64368,24014 103658,28746 -1242,2577 -101014,101578 -110364,110956 -6594,6604 -15634,13799 -18756,26009 -5597,21926 10412,41971 26525,48273 2474,969 6378,1439 8513,2483z"/>
  <path class="fil1" d="M554284 321413c21625,-2408 46326,11570 56372,21681 52807,53118 12934,135300 -51922,136156 -45414,602 -80518,-33223 -81751,-76783 -940,-33336 18681,-60972 45376,-73698 13480,-6425 18738,-5879 31925,-7356zm10535 -82390l-17730 0c-1393,734 -13423,1703 -17158,2333 -26365,4506 -48498,13940 -69813,29564 -40974,30025 -66785,80800 -64988,134040 2916,86133 72447,156680 161120,156426 88485,-254 157170,-69098 160707,-156549 2681,-66211 -36769,-122093 -89369,-148882 -13959,-7102 -29320,-11815 -45141,-14543 -4553,-790 -14138,-602 -17628,-2389z"/>
 </g>
</svg>
