<?xml version="1.0" encoding="UTF-8"?>
<!DOCTYPE svg PUBLIC "-//W3C//DTD SVG 1.1//EN" "http://www.w3.org/Graphics/SVG/1.1/DTD/svg11.dtd">
<!-- Creator: CorelDRAW X7 -->
<svg xmlns="http://www.w3.org/2000/svg" xml:space="preserve" version="1.1" style="shape-rendering:geometricPrecision; text-rendering:geometricPrecision; image-rendering:optimizeQuality; fill-rule:evenodd; clip-rule:evenodd"
viewBox="0 0 889735 1050920"
 xmlns:xlink="http://www.w3.org/1999/xlink">
 <defs>
  <style type="text/css">
   <![CDATA[
    .str0 {stroke:#FEFEFE;stroke-width:26296.7}
    .fil1 {fill:#FEFEFE}
    .fil0 {fill:#7687ED}
   ]]>
  </style>
    <clipPath id="id0">
     <path d="M0 0l879356 0 10379 1050920 -879356 0 -10379 -1050920z"/>
    </clipPath>
 </defs>
 <g id="Слой_x0020_1">
  <metadata id="CorelCorpID_0Corel-Layer"/>
  <g id="_1085450720">
   <g style="clip-path:url(#id0)">
    <image x="0" y="0" width="889735" height="1050920" xlink:href="VK_Images\VK_ImgID1.png"/>
   </g>
  </g>
  <circle class="fil0 str0" cx="440392" cy="451507" r="365884"/>
  <path class="fil1" d="M351522 367312c2299,1104 8101,1097 14181,4471 3803,2105 7418,5674 9064,9582 3645,8651 4742,20390 4727,32580 -15,17902 4036,84872 -28717,50865 -1946,-2014 -3645,-4487 -5486,-6749 -9650,-11837 -26394,-41177 -33211,-54803l-15579 -34549c-2879,-4817 -9387,-8973 -16677,-8973l-58869 0c-6907,0 -17488,1789 -17488,8162 0,7470 2164,11078 5448,17872 872,1796 1315,3239 2127,4870 3187,6403 5847,12874 9139,19420 3232,6440 6095,12205 9319,18653l12250 23305c985,1759 1616,2736 2518,4480l15632 26920c7275,12070 14686,23005 22607,34511 1991,2894 3923,5269 5975,8012 4141,5516 14332,18593 19172,23380 4930,4870 8823,9425 14001,13979 1466,1300 2262,1796 3780,3209l12205 9365c12175,8259 23013,14189 37104,19435 27763,10333 42658,9236 71781,9236 22328,0 17992,-18413 19472,-28912 2345,-16647 9417,-41125 30092,-25312 4449,3412 9350,8763 13250,12979 1007,1090 985,1255 1804,2277l4081 4668c5291,6628 17511,19314 24139,24237 5592,4141 16151,10063 25493,10063l62950 0c10145,0 23313,-4915 23313,-14572 0,-15242 -21051,-36180 -31919,-48520 -3795,-4314 -10010,-9395 -13114,-12536l-8147 -7583c-5712,-5028 -20262,-18563 -20262,-26951 0,-6155 4434,-13077 6990,-16902 15113,-22614 83842,-101234 62296,-114138 -5261,-3149 -12251,-3607 -19157,-3607l-68196 0c-13182,0 -13919,8545 -18232,18488 -1346,3096 -2270,5524 -3585,8665 -9500,22750 -35165,69210 -52451,82776 -9372,7357 -15685,4554 -19007,-7328 -3013,-10762 -1082,-39824 -1157,-54224 -22,-4584 616,-6621 594,-11063 -173,-30174 4073,-40591 -20547,-45919 -12371,-2676 -34677,-1887 -48242,-1887 -10267,0 -20209,1173 -28108,3367 -6809,1887 -16767,7643 -17353,14701z"/>
 </g>
</svg>
